<svg xmlns="http://www.w3.org/2000/svg" viewBox="0 0 694 524" width="694" height="524" font-family="'Inter','SF Pro Display',system-ui,-apple-system,'Segoe UI',sans-serif"><defs><style>:root{--pin-bg0:#F7F9FC;--pin-bg1:#EDF1F7;--pin-dots:#D5DCE6;--pin-text:#1A2230;--pin-textMuted:#5A6577;--pin-textFaint:#7A8699;--pin-edge:#B7C0CE;--pin-neutralFill:#FFFFFF;--pin-neutralStroke:#D5DCE6;--pin-neutralBar:#9AA7B8;--pin-accentFill:#EAF1FF;--pin-accentStroke:#4C8DFF;--pin-accentBar:#4C8DFF;--pin-goodFill:#E6F7EE;--pin-goodStroke:#1F6B49;--pin-goodBar:#1FAE6B;--pin-warnFill:#FDEAEA;--pin-warnStroke:#C0392B;--pin-warnBar:#E5484D;--pin-selectedStroke:#4C8DFF;}@media (prefers-reduced-motion: no-preference){@keyframes pin-pulse{0%,100%{opacity:1}50%{opacity:.5}}.pin-pulse{animation:pin-pulse 1.6s ease-in-out infinite}@keyframes pin-flow{to{stroke-dashoffset:-20}}.pin-flow{stroke-dasharray:4 6;animation:pin-flow .9s linear infinite}}</style><linearGradient id="pin-bg" x1="0" y1="0" x2="0" y2="1"><stop offset="0" stop-color="var(--pin-bg0, #F7F9FC)"/><stop offset="1" stop-color="var(--pin-bg1, #EDF1F7)"/></linearGradient><pattern id="pin-dots" width="28" height="28" patternUnits="userSpaceOnUse"><circle cx="1.5" cy="1.5" r="1.1" fill="var(--pin-dots, #D5DCE6)"/></pattern></defs><rect width="694" height="524" fill="url(#pin-bg)"/><rect width="694" height="524" fill="url(#pin-dots)" opacity="0.6"/><g data-edge-from="AI Agent" data-edge-to="Skills" data-edge-via="reads · always-on guidance"><path class="pin-edge-line" d="M 388 106 C 388 176, 522 176, 522 246" fill="none" stroke="var(--pin-edge, #B7C0CE)" stroke-width="1.4" stroke-linecap="round"/><path d="M 388 106 C 388 176, 522 176, 522 246" fill="none" stroke="transparent" stroke-width="14" stroke-linecap="round" pointer-events="stroke"/></g><g data-edge-from="AI Agent" data-edge-to="MCP Tools" data-edge-via="calls · programmatic actions"><path class="pin-edge-line" d="M 388 106 C 388 254, 455 254, 455 402" fill="none" stroke="var(--pin-edge, #B7C0CE)" stroke-width="1.4" stroke-linecap="round"/><path d="M 388 106 C 388 254, 455 254, 455 402" fill="none" stroke="transparent" stroke-width="14" stroke-linecap="round" pointer-events="stroke"/></g><g data-edge-from="AI Agent" data-edge-to="Ops" data-edge-via="triggers via op-run"><path class="pin-edge-line" d="M 388 106 C 388 176, 213 176, 213 246" fill="none" stroke="var(--pin-edge, #B7C0CE)" stroke-width="1.4" stroke-linecap="round"/><path d="M 388 106 C 388 176, 213 176, 213 246" fill="none" stroke="transparent" stroke-width="14" stroke-linecap="round" pointer-events="stroke"/></g><g data-edge-from="Skills" data-edge-to="MCP Tools" data-edge-via="guides"><path class="pin-edge-line" d="M 522 246 C 522 324, 455 324, 455 402" fill="none" stroke="var(--pin-edge, #B7C0CE)" stroke-width="1.4" stroke-linecap="round"/><path d="M 522 246 C 522 324, 455 324, 455 402" fill="none" stroke="transparent" stroke-width="14" stroke-linecap="round" pointer-events="stroke"/></g><g data-node-id="AI Agent"><rect x="303" y="80" width="170" height="52" rx="12" fill="var(--pin-neutralFill, #FFFFFF)" stroke="var(--pin-neutralStroke, #D5DCE6)" stroke-width="1.2"/><rect x="303" y="80" width="4" height="52" rx="2" fill="var(--pin-neutralBar, #9AA7B8)"/><g transform="translate(317 95) scale(0.9166666666666666)" fill="none" stroke="var(--pin-textFaint, #7A8699)" stroke-width="2" stroke-linecap="round" stroke-linejoin="round"><rect x="4" y="4" width="16" height="16" rx="3"/></g><text x="349" y="106" fill="var(--pin-text, #1A2230)" font-size="15" font-weight="700">AI Agent</text></g><g data-node-id="Skills"><rect x="430" y="204" width="184" height="84" rx="12" fill="var(--pin-neutralFill, #FFFFFF)" stroke="var(--pin-neutralStroke, #D5DCE6)" stroke-width="1.2"/><rect x="430" y="204" width="4" height="84" rx="2" fill="var(--pin-neutralBar, #9AA7B8)"/><g transform="translate(444 219) scale(0.9166666666666666)" fill="none" stroke="var(--pin-textFaint, #7A8699)" stroke-width="2" stroke-linecap="round" stroke-linejoin="round"><rect x="4" y="4" width="16" height="16" rx="3"/></g><text x="476" y="230" fill="var(--pin-text, #1A2230)" font-size="15" font-weight="700">Skills</text><text x="446" y="268" font-size="11"><tspan fill="var(--pin-textFaint, #7A8699)">are: </tspan><tspan fill="var(--pin-textMuted, #5A6577)">operational playbooks</tspan></text><text x="446" y="284" font-size="11"><tspan fill="var(--pin-textFaint, #7A8699)">installed to: </tspan><tspan fill="var(--pin-textMuted, #5A6577)">skills/</tspan></text></g><g data-node-id="MCP Tools"><rect x="337" y="360" width="237" height="84" rx="12" fill="var(--pin-neutralFill, #FFFFFF)" stroke="var(--pin-neutralStroke, #D5DCE6)" stroke-width="1.2"/><rect x="337" y="360" width="4" height="84" rx="2" fill="var(--pin-neutralBar, #9AA7B8)"/><g transform="translate(351 375) scale(0.9166666666666666)" fill="none" stroke="var(--pin-textFaint, #7A8699)" stroke-width="2" stroke-linecap="round" stroke-linejoin="round"><rect x="4" y="4" width="16" height="16" rx="3"/></g><text x="383" y="386" fill="var(--pin-text, #1A2230)" font-size="15" font-weight="700">MCP Tools</text><text x="353" y="424" font-size="11"><tspan fill="var(--pin-textFaint, #7A8699)">core: </tspan><tspan fill="var(--pin-textMuted, #5A6577)">build · lint · import</tspan></text><text x="353" y="440" font-size="11"><tspan fill="var(--pin-textFaint, #7A8699)">ops: </tspan><tspan fill="var(--pin-textMuted, #5A6577)">op-run · op-status · op-signal</tspan></text></g><g data-node-id="Ops"><rect x="80" y="204" width="266" height="84" rx="12" fill="var(--pin-neutralFill, #FFFFFF)" stroke="var(--pin-neutralStroke, #D5DCE6)" stroke-width="1.2"/><rect x="80" y="204" width="4" height="84" rx="2" fill="var(--pin-neutralBar, #9AA7B8)"/><g transform="translate(94 219) scale(0.9166666666666666)" fill="none" stroke="var(--pin-textFaint, #7A8699)" stroke-width="2" stroke-linecap="round" stroke-linejoin="round"><rect x="4" y="4" width="16" height="16" rx="3"/></g><text x="126" y="230" fill="var(--pin-text, #1A2230)" font-size="15" font-weight="700">Ops</text><text x="96" y="268" font-size="11"><tspan fill="var(--pin-textFaint, #7A8699)">are: </tspan><tspan fill="var(--pin-textMuted, #5A6577)">*.op.ts workflows</tspan></text><text x="96" y="284" font-size="11"><tspan fill="var(--pin-textFaint, #7A8699)">traits: </tspan><tspan fill="var(--pin-textMuted, #5A6577)">durable · observable · gate-able</tspan></text></g></svg>