<svg xmlns="http://www.w3.org/2000/svg" viewBox="0 0 1284 728" width="1284" height="728" font-family="'Inter','SF Pro Display',system-ui,-apple-system,'Segoe UI',sans-serif"><defs><style>:root{--pin-bg0:#F7F9FC;--pin-bg1:#EDF1F7;--pin-dots:#D5DCE6;--pin-text:#1A2230;--pin-textMuted:#5A6577;--pin-textFaint:#7A8699;--pin-edge:#B7C0CE;--pin-neutralFill:#FFFFFF;--pin-neutralStroke:#D5DCE6;--pin-neutralBar:#9AA7B8;--pin-accentFill:#EAF1FF;--pin-accentStroke:#4C8DFF;--pin-accentBar:#4C8DFF;--pin-goodFill:#E6F7EE;--pin-goodStroke:#1F6B49;--pin-goodBar:#1FAE6B;--pin-warnFill:#FDEAEA;--pin-warnStroke:#C0392B;--pin-warnBar:#E5484D;--pin-selectedStroke:#4C8DFF;}@media (prefers-reduced-motion: no-preference){@keyframes pin-pulse{0%,100%{opacity:1}50%{opacity:.5}}.pin-pulse{animation:pin-pulse 1.6s ease-in-out infinite}@keyframes pin-flow{to{stroke-dashoffset:-20}}.pin-flow{stroke-dasharray:4 6;animation:pin-flow .9s linear infinite}}</style><linearGradient id="pin-bg" x1="0" y1="0" x2="0" y2="1"><stop offset="0" stop-color="var(--pin-bg0, #F7F9FC)"/><stop offset="1" stop-color="var(--pin-bg1, #EDF1F7)"/></linearGradient><pattern id="pin-dots" width="28" height="28" patternUnits="userSpaceOnUse"><circle cx="1.5" cy="1.5" r="1.1" fill="var(--pin-dots, #D5DCE6)"/></pattern></defs><rect width="1284" height="728" fill="url(#pin-bg)"/><rect width="1284" height="728" fill="url(#pin-dots)" opacity="0.6"/><rect x="439" y="94" width="309" height="550" rx="16" fill="var(--pin-bg1, #EDF1F7)" fill-opacity="0.6" stroke="var(--pin-neutralStroke, #D5DCE6)" stroke-width="1.2"/><text x="457" y="117" fill="var(--pin-textMuted, #5A6577)" font-size="12" font-weight="700" letter-spacing=".5">@intentius/chant</text><rect x="820" y="80" width="384" height="524" rx="16" fill="var(--pin-bg1, #EDF1F7)" fill-opacity="0.6" stroke="var(--pin-neutralStroke, #D5DCE6)" stroke-width="1.2"/><text x="838" y="103" fill="var(--pin-textMuted, #5A6577)" font-size="12" font-weight="700" letter-spacing=".5">Lexicon Plugin  (aws · k8s · temporal · …)</text><g data-edge-from="CLI" data-edge-to="Build pipeline" data-edge-via="build() · lint()"><path class="pin-edge-line" d="M 223.5 452 C 223.5 337, 593.5 337, 593.5 222" fill="none" stroke="var(--pin-edge, #B7C0CE)" stroke-width="1.4" stroke-linecap="round"/><path d="M 223.5 452 C 223.5 337, 593.5 337, 593.5 222" fill="none" stroke="transparent" stroke-width="14" stroke-linecap="round" pointer-events="stroke"/></g><g><rect x="355.9" y="328" width="105.2" height="18" rx="9" fill="var(--pin-bg0, #F7F9FC)" stroke="var(--pin-neutralStroke, #D5DCE6)" stroke-width="1"/><text x="408.5" y="340.5" text-anchor="middle" fill="var(--pin-textMuted, #5A6577)" font-size="10.5">build() · lint()</text></g><g data-edge-from="Build pipeline" data-edge-to="Serializer" data-edge-via="serialize()"><path class="pin-edge-line" d="M 593.5 222 C 593.5 255, 1012 255, 1012 288" fill="none" stroke="var(--pin-edge, #B7C0CE)" stroke-width="1.4" stroke-linecap="round"/><path d="M 593.5 222 C 593.5 255, 1012 255, 1012 288" fill="none" stroke="transparent" stroke-width="14" stroke-linecap="round" pointer-events="stroke"/></g><g><rect x="764.4" y="246" width="76.7" height="18" rx="9" fill="var(--pin-bg0, #F7F9FC)" stroke="var(--pin-neutralStroke, #D5DCE6)" stroke-width="1"/><text x="802.8" y="258.5" text-anchor="middle" fill="var(--pin-textMuted, #5A6577)" font-size="10.5">serialize()</text></g><g data-edge-from="Lint engine" data-edge-to="Lint rules + post-synth checks" data-edge-via="runRules()"><path class="pin-edge-line" d="M 593.5 420 C 593.5 455, 1012 455, 1012 490" fill="none" stroke="var(--pin-edge, #B7C0CE)" stroke-width="1.4" stroke-linecap="round"/><path d="M 593.5 420 C 593.5 455, 1012 455, 1012 490" fill="none" stroke="transparent" stroke-width="14" stroke-linecap="round" pointer-events="stroke"/></g><g><rect x="767.3" y="446" width="71.0" height="18" rx="9" fill="var(--pin-bg0, #F7F9FC)" stroke="var(--pin-neutralStroke, #D5DCE6)" stroke-width="1"/><text x="802.8" y="458.5" text-anchor="middle" fill="var(--pin-textMuted, #5A6577)" font-size="10.5">runRules()</text></g><g data-edge-from="Build pipeline" data-edge-to="LSP · MCP · Skills" data-edge-via="completions() · hover()"><path class="pin-edge-line" d="M 593.5 222 C 593.5 189, 1012 189, 1012 156" fill="none" stroke="var(--pin-edge, #B7C0CE)" stroke-width="1.4" stroke-linecap="round"/><path d="M 593.5 222 C 593.5 189, 1012 189, 1012 156" fill="none" stroke="transparent" stroke-width="14" stroke-linecap="round" pointer-events="stroke"/></g><g><rect x="730.2" y="180" width="145.1" height="18" rx="9" fill="var(--pin-bg0, #F7F9FC)" stroke="var(--pin-neutralStroke, #D5DCE6)" stroke-width="1"/><text x="802.8" y="192.5" text-anchor="middle" fill="var(--pin-textMuted, #5A6577)" font-size="10.5">completions() · hover()</text></g><g data-edge-from="Codegen infra" data-edge-to="Lint rules + post-synth checks" data-edge-via="generatePipeline()"><path class="pin-edge-line" d="M 593.5 560 C 593.5 525, 1012 525, 1012 490" fill="none" stroke="var(--pin-edge, #B7C0CE)" stroke-width="1.4" stroke-linecap="round"/><path d="M 593.5 560 C 593.5 525, 1012 525, 1012 490" fill="none" stroke="transparent" stroke-width="14" stroke-linecap="round" pointer-events="stroke"/></g><g><rect x="744.5" y="516" width="116.6" height="18" rx="9" fill="var(--pin-bg0, #F7F9FC)" stroke="var(--pin-neutralStroke, #D5DCE6)" stroke-width="1"/><text x="802.8" y="528.5" text-anchor="middle" fill="var(--pin-textMuted, #5A6577)" font-size="10.5">generatePipeline()</text></g><g data-edge-from="@intentius/chant-test-utils" data-edge-to="Build pipeline" data-edge-via="test helpers"><path class="pin-edge-line" d="M 223.5 156 C 223.5 189, 593.5 189, 593.5 222" fill="none" stroke="var(--pin-edge, #B7C0CE)" stroke-width="1.4" stroke-linecap="round"/><path d="M 223.5 156 C 223.5 189, 593.5 189, 593.5 222" fill="none" stroke="transparent" stroke-width="14" stroke-linecap="round" pointer-events="stroke"/></g><g><rect x="367.3" y="180" width="82.4" height="18" rx="9" fill="var(--pin-bg0, #F7F9FC)" stroke="var(--pin-neutralStroke, #D5DCE6)" stroke-width="1"/><text x="408.5" y="192.5" text-anchor="middle" fill="var(--pin-textMuted, #5A6577)" font-size="10.5">test helpers</text></g><g data-node-id="CLI"><rect x="99" y="418" width="249" height="68" rx="12" fill="var(--pin-neutralFill, #FFFFFF)" stroke="var(--pin-neutralStroke, #D5DCE6)" stroke-width="1.2"/><rect x="99" y="418" width="4" height="68" rx="2" fill="var(--pin-neutralBar, #9AA7B8)"/><g transform="translate(113 433) scale(0.9166666666666666)" fill="none" stroke="var(--pin-textFaint, #7A8699)" stroke-width="2" stroke-linecap="round" stroke-linejoin="round"><rect x="4" y="4" width="16" height="16" rx="3"/></g><text x="145" y="444" fill="var(--pin-text, #1A2230)" font-size="15" font-weight="700">CLI</text><text x="115" y="482" font-size="11"><tspan fill="var(--pin-textFaint, #7A8699)">verbs: </tspan><tspan fill="var(--pin-textMuted, #5A6577)">build · lint · run · serve mcp</tspan></text></g><g data-node-id="Build pipeline"><rect x="496" y="180" width="196" height="84" rx="12" fill="var(--pin-neutralFill, #FFFFFF)" stroke="var(--pin-neutralStroke, #D5DCE6)" stroke-width="1.2"/><rect x="496" y="180" width="4" height="84" rx="2" fill="var(--pin-neutralBar, #9AA7B8)"/><g transform="translate(510 195) scale(0.9166666666666666)" fill="none" stroke="var(--pin-textFaint, #7A8699)" stroke-width="2" stroke-linecap="round" stroke-linejoin="round"><rect x="4" y="4" width="16" height="16" rx="3"/></g><text x="542" y="206" fill="var(--pin-text, #1A2230)" font-size="15" font-weight="700">Build pipeline</text><text x="512" y="244" font-size="11"><tspan fill="var(--pin-textFaint, #7A8699)">does: </tspan><tspan fill="var(--pin-textMuted, #5A6577)">discovery · evaluation</tspan></text><text x="512" y="260" font-size="11"><tspan fill="var(--pin-textFaint, #7A8699)">then: </tspan><tspan fill="var(--pin-textMuted, #5A6577)">topological sort</tspan></text></g><g data-node-id="Lint engine"><rect x="478" y="386" width="231" height="68" rx="12" fill="var(--pin-neutralFill, #FFFFFF)" stroke="var(--pin-neutralStroke, #D5DCE6)" stroke-width="1.2"/><rect x="478" y="386" width="4" height="68" rx="2" fill="var(--pin-neutralBar, #9AA7B8)"/><g transform="translate(492 401) scale(0.9166666666666666)" fill="none" stroke="var(--pin-textFaint, #7A8699)" stroke-width="2" stroke-linecap="round" stroke-linejoin="round"><rect x="4" y="4" width="16" height="16" rx="3"/></g><text x="524" y="412" fill="var(--pin-text, #1A2230)" font-size="15" font-weight="700">Lint engine</text><text x="494" y="450" font-size="11"><tspan fill="var(--pin-textFaint, #7A8699)">kinds: </tspan><tspan fill="var(--pin-textMuted, #5A6577)">EVL · semantic · post-synth</tspan></text></g><g data-node-id="Codegen infra"><rect x="475" y="518" width="237" height="84" rx="12" fill="var(--pin-neutralFill, #FFFFFF)" stroke="var(--pin-neutralStroke, #D5DCE6)" stroke-width="1.2"/><rect x="475" y="518" width="4" height="84" rx="2" fill="var(--pin-neutralBar, #9AA7B8)"/><g transform="translate(489 533) scale(0.9166666666666666)" fill="none" stroke="var(--pin-textFaint, #7A8699)" stroke-width="2" stroke-linecap="round" stroke-linejoin="round"><rect x="4" y="4" width="16" height="16" rx="3"/></g><text x="521" y="544" fill="var(--pin-text, #1A2230)" font-size="15" font-weight="700">Codegen infra</text><text x="491" y="582" font-size="11"><tspan fill="var(--pin-textFaint, #7A8699)">has: </tspan><tspan fill="var(--pin-textMuted, #5A6577)">generate/package Pipeline</tspan></text><text x="491" y="598" font-size="11"><tspan fill="var(--pin-textFaint, #7A8699)">plus: </tspan><tspan fill="var(--pin-textMuted, #5A6577)">NamingStrategy · LexiconIndex</tspan></text></g><g data-node-id="Serializer"><rect x="920" y="254" width="184" height="68" rx="12" fill="var(--pin-neutralFill, #FFFFFF)" stroke="var(--pin-neutralStroke, #D5DCE6)" stroke-width="1.2"/><rect x="920" y="254" width="4" height="68" rx="2" fill="var(--pin-neutralBar, #9AA7B8)"/><g transform="translate(934 269) scale(0.9166666666666666)" fill="none" stroke="var(--pin-textFaint, #7A8699)" stroke-width="2" stroke-linecap="round" stroke-linejoin="round"><rect x="4" y="4" width="16" height="16" rx="3"/></g><text x="966" y="280" fill="var(--pin-text, #1A2230)" font-size="15" font-weight="700">Serializer</text><text x="936" y="318" font-size="11"><tspan fill="var(--pin-textFaint, #7A8699)">does: </tspan><tspan fill="var(--pin-textMuted, #5A6577)">target format output</tspan></text></g><g data-node-id="Lint rules + post-synth checks"><rect x="856" y="464" width="312" height="52" rx="12" fill="var(--pin-neutralFill, #FFFFFF)" stroke="var(--pin-neutralStroke, #D5DCE6)" stroke-width="1.2"/><rect x="856" y="464" width="4" height="52" rx="2" fill="var(--pin-neutralBar, #9AA7B8)"/><g transform="translate(870 479) scale(0.9166666666666666)" fill="none" stroke="var(--pin-textFaint, #7A8699)" stroke-width="2" stroke-linecap="round" stroke-linejoin="round"><rect x="4" y="4" width="16" height="16" rx="3"/></g><text x="902" y="490" fill="var(--pin-text, #1A2230)" font-size="15" font-weight="700">Lint rules + post-synth checks</text></g><g data-node-id="LSP · MCP · Skills"><rect x="900" y="122" width="225" height="68" rx="12" fill="var(--pin-neutralFill, #FFFFFF)" stroke="var(--pin-neutralStroke, #D5DCE6)" stroke-width="1.2"/><rect x="900" y="122" width="4" height="68" rx="2" fill="var(--pin-neutralBar, #9AA7B8)"/><g transform="translate(914 137) scale(0.9166666666666666)" fill="none" stroke="var(--pin-textFaint, #7A8699)" stroke-width="2" stroke-linecap="round" stroke-linejoin="round"><rect x="4" y="4" width="16" height="16" rx="3"/></g><text x="946" y="148" fill="var(--pin-text, #1A2230)" font-size="15" font-weight="700">LSP · MCP · Skills</text><text x="916" y="186" font-size="11"><tspan fill="var(--pin-textFaint, #7A8699)">give: </tspan><tspan fill="var(--pin-textMuted, #5A6577)">completions · hover · tools</tspan></text></g><g data-node-id="@intentius/chant-test-utils"><rect x="80" y="122" width="287" height="68" rx="12" fill="var(--pin-neutralFill, #FFFFFF)" stroke="var(--pin-neutralStroke, #D5DCE6)" stroke-width="1.2"/><rect x="80" y="122" width="4" height="68" rx="2" fill="var(--pin-neutralBar, #9AA7B8)"/><g transform="translate(94 137) scale(0.9166666666666666)" fill="none" stroke="var(--pin-textFaint, #7A8699)" stroke-width="2" stroke-linecap="round" stroke-linejoin="round"><rect x="4" y="4" width="16" height="16" rx="3"/></g><text x="126" y="148" fill="var(--pin-text, #1A2230)" font-size="15" font-weight="700">@intentius/chant-test-utils</text><text x="96" y="186" font-size="11"><tspan fill="var(--pin-textFaint, #7A8699)">has: </tspan><tspan fill="var(--pin-textMuted, #5A6577)">mocks · harness · assertions</tspan></text></g></svg>